SplineFontDB: 3.2
FontName: M51-Regular
FullName: M51 Regular
FamilyName: M51
Weight: Regular
Copyright: 
Version: 
ItalicAngle: 0
UnderlinePosition: -150
UnderlineWidth: 50
Ascent: 750
Descent: 250
InvalidEm: 0
sfntRevision: 0x00010000
LayerCount: 2
Layer: 0 0 "Back" 1
Layer: 1 0 "Fore" 0
XUID: [1021 731 -2074760495 3092]
StyleMap: 0x0040
FSType: 0
OS2Version: 0
OS2_WeightWidthSlopeOnly: 0
OS2_UseTypoMetrics: 0
CreationTime: 1229875379
ModificationTime: 1713030531
PfmFamily: 33
TTFWeight: 500
TTFWidth: 5
LineGap: 0
VLineGap: 0
Panose: 2 11 6 9 3 4 3 2 2 0
OS2TypoAscent: 0
OS2TypoAOffset: 1
OS2TypoDescent: 0
OS2TypoDOffset: 1
OS2TypoLinegap: 0
OS2WinAscent: 0
OS2WinAOffset: 1
OS2WinDescent: 0
OS2WinDOffset: 1
HheadAscent: 200
HheadAOffset: 1
HheadDescent: 0
HheadDOffset: 1
OS2CapHeight: 650
OS2XHeight: 480
OS2Vendor: '    '
OS2CodePages: 600001df.ffdf0000
OS2UnicodeRanges: e60022ff.d200f9fb.02000028.00000000
MarkAttachClasses: 1
DEI: 91125
LangName: 1033 "" "" "" "" "" "1" "" "" "" "m31"
DesignSize: 160
Encoding: UnicodeBmp
Compacted: 1
UnicodeInterp: none
NameList: AGL For New Fonts
DisplaySize: -36
AntiAlias: 1
FitToEm: 0
WinInfo: 0 25 19
BeginPrivate: 10
BlueValues 47 [-12 0 500 512 580 592 634 646 650 662 696 708]
StdVW 5 [172]
StdHW 5 [134]
StemSnapH 5 [134]
StemSnapV 5 [172]
BlueFuzz 1 0
BlueScale 6 0.0625
OtherBlues 11 [-188 -176]
FamilyBlues 47 [-12 0 486 498 574 586 638 650 656 668 712 724]
FamilyOtherBlues 11 [-217 -205]
EndPrivate
TeXData: 1 16777216 0 629146 314573 209715 503316 1048576 209715 783286 444596 497025 792723 393216 433062 380633 303038 157286 324010 404750 52429 2506097 1059062 262144
BeginChars: 65536 95

StartChar: exclam
Encoding: 33 33 1
Width: 600
GlyphClass: 2
Flags: W
HStem: 0 150<200 400>
VStem: 200 200<0 150> 220 160<260 750>
LayerCount: 2
Fore
SplineSet
220 750 m 1xa0
 380 750 l 1
 380 260 l 1
 220 260 l 1
 220 750 l 1xa0
200 150 m 5xc0
 400 150 l 1
 400 0 l 1
 200 0 l 5
 200 150 l 5xc0
EndSplineSet
Validated: 1
EndChar

StartChar: quotedbl
Encoding: 34 34 2
Width: 600
GlyphClass: 2
Flags: W
HStem: 457 298<105 255 345 495>
VStem: 105 150<457 755> 345 150<457 755>
LayerCount: 2
Fore
SplineSet
495 755 m 5
 495 457 l 5
 345 457 l 1
 345 755 l 1
 495 755 l 5
255 755 m 1
 255 457 l 1
 105 457 l 1
 105 755 l 1
 255 755 l 1
EndSplineSet
Validated: 1
EndChar

StartChar: numbersign
Encoding: 35 35 3
Width: 600
GlyphClass: 2
Flags: W
HStem: 180 80<55 140 250 350 460 545> 400 80<55 140 250 350 460 545>
VStem: 140 110<50 180 260 400 480 615> 350 110<50 180 260 400 480 615>
LayerCount: 2
Fore
SplineSet
250 615 m 1
 250 480 l 1
 350 480 l 1
 350 615 l 1
 461 615 l 1
 460 480 l 1
 545 480 l 1
 545 400 l 1
 460 400 l 1
 460 260 l 1
 545 260 l 1
 545 180 l 1
 460 180 l 1
 460 50 l 1
 350 50 l 1
 350 180 l 1
 250 180 l 1
 250 50 l 1
 140 50 l 1
 140 180 l 1
 55 180 l 1
 55 260 l 1
 140 260 l 1
 140 400 l 1
 55 400 l 1
 55 480 l 1
 140 480 l 1
 140 615 l 1
 250 615 l 1
350 400 m 1
 250 400 l 1
 250 260 l 1
 350 260 l 1
 350 400 l 1
EndSplineSet
Validated: 1
EndChar

StartChar: dollar
Encoding: 36 36 4
Width: 600
GlyphClass: 2
Flags: W
HStem: -1 116<114 219> 500 115<380 465>
VStem: 105 170<384 500> 219 145<-126 -1> 235 145<615 740> 325 170<115 245>
LayerCount: 2
Fore
SplineSet
160 329 m 1xc4
 105 384 l 1
 105 540 l 1xe4
 180 615 l 1
 235 615 l 1
 235 740 l 1
 380 740 l 1
 380 615 l 1xc8
 465 615 l 1
 465 500 l 1
 275 500 l 1
 275 384 l 1
 440 300 l 1
 495 245 l 1
 495 75 l 1xe4
 420 0 l 1
 365 0 l 1
 364 -126 l 1
 219 -126 l 1
 219 -1 l 1xd0
 114 -1 l 1
 114 115 l 1
 325 115 l 1
 325 247 l 1
 160 329 l 1xc4
EndSplineSet
Validated: 1
EndChar

StartChar: percent
Encoding: 37 37 5
Width: 600
GlyphClass: 2
Flags: W
HStem: -19 199<369.939 497.207> 461 199<101.939 227.948> 622 20G<399.596 440.375>
VStem: 71 190<494.123 628.137> 339 190<13.2215 147.877>
LayerCount: 2
Fore
SplineSet
339 80 m 0x98
 339 112 348 137 365 154 c 0
 382 171 405 180 434 180 c 0
 462 180 484 172 502 154 c 0
 520 136 529 112 529 81 c 0
 529 50 520 26 503 8 c 0
 486 -10 463 -19 434 -19 c 0
 405 -19 382 -10 365 7 c 0
 348 24 339 48 339 80 c 0x98
180 7 m 1
 86 72 l 1
 411 642 l 1xb8
 505 578 l 1
 180 7 l 1
71 561 m 0
 71 593 80 617 97 634 c 0
 114 651 137 660 166 660 c 0
 194 660 216 651 234 634 c 0
 252 617 261 592 261 561 c 0
 261 530 252 506 234 488 c 0
 216 470 194 461 166 461 c 0xd8
 137 461 114 470 97 487 c 0
 80 504 71 529 71 561 c 0
EndSplineSet
Validated: 1
EndChar

StartChar: ampersand
Encoding: 38 38 6
Width: 600
GlyphClass: 2
Flags: W
HStem: 0 80<265 300> 640 90<225 285>
VStem: 50 120<175 260> 85 120<500 617> 305 120<500 615>
LayerCount: 2
Fore
SplineSet
346 0 m 1xd8
 175 0 l 1
 50 125 l 1
 50 298 l 1xe8
 160 408 l 1
 85 483 l 1
 85 635 l 1
 180 730 l 1
 330 730 l 1
 425 635 l 1
 425 495 l 1
 310 380 l 1
 428 262 l 1
 476 330 l 1
 526 330 l 1
 526 235 l 1
 471 175 l 1
 546 95 l 1
 547 0 l 1
 486 0 l 1
 416 70 l 1
 346 0 l 1xd8
380 160 m 1
 225 315 l 1
 170 260 l 1
 170 175 l 1
 265 80 l 1
 300 80 l 1
 380 160 l 1
255 450 m 1
 305 500 l 1
 305 615 l 1
 285 640 l 1
 225 640 l 1
 205 617 l 1
 205 500 l 1xd8
 255 450 l 1
EndSplineSet
Validated: 1
EndChar

StartChar: quotesingle
Encoding: 39 39 7
Width: 600
GlyphClass: 2
Flags: W
VStem: 205 210<365 725>
LayerCount: 2
Fore
SplineSet
415 725 m 1
 415 365 l 1
 205 365 l 1
 205 725 l 1
 415 725 l 1
EndSplineSet
Validated: 1
EndChar

StartChar: parenleft
Encoding: 40 40 8
Width: 600
GlyphClass: 2
Flags: W
VStem: 80 140<112 478>
LayerCount: 2
Fore
SplineSet
370 750 m 1
 245 550 l 1
 220 450 l 1
 220 140 l 1
 245 40 l 1
 370 -160 l 1
 205 -160 l 1
 105 40 l 1
 80 140 l 1
 80 450 l 1
 105 550 l 1
 205 750 l 1
 370 750 l 1
EndSplineSet
Validated: 1
EndChar

StartChar: parenright
Encoding: 41 41 9
Width: 600
GlyphClass: 2
Flags: W
VStem: 380 140<112 478>
LayerCount: 2
Fore
SplineSet
230 750 m 1
 395 750 l 1
 495 550 l 1
 520 450 l 1
 520 140 l 1
 495 40 l 1
 395 -160 l 1
 230 -160 l 1
 355 40 l 1
 380 140 l 1
 380 450 l 1
 355 550 l 1
 230 750 l 1
EndSplineSet
Validated: 1
EndChar

StartChar: asterisk
Encoding: 42 42 10
Width: 600
GlyphClass: 2
Flags: W
VStem: 245 110<224 402 562 750>
LayerCount: 2
Fore
SplineSet
555 575 m 1
 386 482 l 1
 560 398 l 1
 505 309 l 1
 355 402 l 1
 355 224 l 1
 245 224 l 1
 245 402 l 1
 95 299 l 1
 40 388 l 1
 214 482 l 1
 40 575 l 1
 95 675 l 1
 245 562 l 1
 245 750 l 1
 355 750 l 1
 355 562 l 1
 500 675 l 1
 555 575 l 1
EndSplineSet
Validated: 1
EndChar

StartChar: plus
Encoding: 43 43 11
Width: 600
GlyphClass: 2
Flags: W
HStem: 200 100<70 240 360 530>
VStem: 240 120<20 200 300 480>
LayerCount: 2
Fore
SplineSet
360 480 m 1
 360 300 l 1
 530 300 l 1
 530 200 l 1
 360 200 l 1
 360 20 l 1
 240 20 l 1
 240 200 l 1
 70 200 l 1
 70 300 l 1
 240 300 l 1
 240 480 l 1
 360 480 l 1
EndSplineSet
Validated: 1
EndChar

StartChar: comma
Encoding: 44 44 12
Width: 600
GlyphClass: 2
Flags: W
HStem: 100 125<140 290>
VStem: 290 160<-100 100>
LayerCount: 2
Fore
SplineSet
140 100 m 5
 140 225 l 5
 450 225 l 5
 450 -100 l 5
 290 -100 l 5
 290 100 l 5
 140 100 l 5
EndSplineSet
Validated: 1
EndChar

StartChar: hyphen
Encoding: 45 45 13
Width: 600
GlyphClass: 2
Flags: W
HStem: 210 80<120 480>
LayerCount: 2
Fore
SplineSet
120 290 m 25
 480 290 l 25
 480 210 l 25
 120 210 l 25
 120 290 l 25
EndSplineSet
Validated: 1
EndChar

StartChar: period
Encoding: 46 46 14
Width: 600
GlyphClass: 2
Flags: W
HStem: 0 175<200 400>
VStem: 200 200<0 175>
LayerCount: 2
Fore
SplineSet
200 175 m 5
 400 175 l 5
 400 0 l 5
 200 0 l 5
 200 175 l 5
EndSplineSet
Validated: 1
EndChar

StartChar: slash
Encoding: 47 47 15
Width: 600
GlyphClass: 2
Flags: W
HStem: -120 125<60 135> 575 125<465 540>
LayerCount: 2
Fore
SplineSet
385 700 m 1
 540 700 l 1
 540 575 l 1
 465 575 l 1
 215 -120 l 1
 60 -120 l 1
 60 5 l 1
 135 5 l 1
 385 700 l 1
EndSplineSet
Validated: 1
EndChar

StartChar: zero
Encoding: 48 48 16
Width: 600
GlyphClass: 2
Flags: W
HStem: 0 110<230 370> 550 110<230 370>
VStem: 80 150<110 304 364 550> 370 150<110 304 364 550>
LayerCount: 2
Fore
SplineSet
223 0 m 1
 80 100 l 1
 80 304 l 1
 152 309 l 1
 230 304 l 1
 230 110 l 1
 370 110 l 5
 370 304 l 5
 448 309 l 1
 520 304 l 1
 520 100 l 1
 377 0 l 1
 223 0 l 1
370 550 m 5
 230 550 l 1
 230 364 l 1
 152 359 l 1
 80 364 l 1
 80 560 l 1
 203 660 l 1
 397 660 l 1
 520 560 l 1
 520 364 l 1
 448 359 l 1
 370 364 l 5
 370 550 l 5
EndSplineSet
Validated: 1
EndChar

StartChar: one
Encoding: 49 49 17
Width: 600
GlyphClass: 2
Flags: W
HStem: 0 21G<350 480> 630 20G<326.923 480>
VStem: 350 130<0 480>
LayerCount: 2
Fore
SplineSet
200 520 m 1
 350 650 l 5
 480 650 l 1
 480 0 l 1
 350 0 l 1
 350 480 l 1
 200 340 l 1
 200 520 l 1
EndSplineSet
Validated: 1
EndChar

StartChar: two
Encoding: 50 50 18
Width: 600
GlyphClass: 2
Flags: W
HStem: 0 115<215 507> 275 115<215 385> 535 115<103 385>
VStem: 75 140<115 275> 385 140<390 535>
LayerCount: 2
Fore
SplineSet
215 115 m 1
 507 115 l 1
 507 0 l 1
 210 0 l 1
 75 100 l 1
 75 284 l 1
 205 390 l 1
 385 390 l 1
 385 535 l 1
 103 535 l 1
 103 650 l 1
 390 650 l 1
 525 550 l 1
 525 375 l 1
 395 275 l 1
 215 275 l 1
 215 115 l 1
EndSplineSet
Validated: 1
EndChar

StartChar: three
Encoding: 51 51 19
Width: 600
GlyphClass: 2
Flags: W
HStem: 0 110<100 348> 275 110<100 358> 540 110<100 348>
VStem: 390 130<142 245 413 508>
LayerCount: 2
Fore
SplineSet
520 400 m 1
 448 330 l 1
 448 320 l 1
 520 250 l 1
 520 102 l 1
 388 0 l 1
 100 0 l 1
 100 110 l 1
 348 110 l 1
 390 142 l 1
 390 245 l 1
 358 275 l 1
 100 275 l 1
 100 385 l 1
 358 385 l 1
 390 413 l 1
 390 508 l 1
 348 540 l 1
 100 540 l 1
 100 650 l 1
 388 650 l 1
 520 548 l 1
 520 400 l 1
EndSplineSet
Validated: 1
EndChar

StartChar: four
Encoding: 52 52 20
Width: 600
GlyphClass: 2
Flags: W
HStem: 0 21G<385 525> 284 110<215 385>
VStem: 75 140<394 640> 385 140<0 284 394 640>
LayerCount: 2
Fore
SplineSet
385 284 m 1
 205 284 l 1
 75 384 l 1
 75 640 l 5
 215 670 l 5
 215 394 l 1
 385 394 l 1
 385 670 l 5
 525 640 l 5
 525 0 l 1
 385 0 l 1
 385 284 l 1
EndSplineSet
Validated: 1
EndChar

StartChar: five
Encoding: 53 53 21
Width: 600
GlyphClass: 2
Flags: W
HStem: 0 110<170 400> 295 110<210 400> 550 110<213 405>
VStem: 80 130<405 550> 400 140<110 295>
LayerCount: 2
Fore
SplineSet
170 0 m 5
 170 110 l 5
 400 110 l 5
 400 295 l 5
 180 295 l 5
 80 385 l 5
 80 558 l 5
 213 660 l 5
 405 660 l 5
 405 550 l 5
 210 550 l 5
 210 405 l 5
 440 405 l 5
 540 305 l 5
 540 102 l 5
 407 0 l 5
 170 0 l 5
EndSplineSet
Validated: 1
EndChar

StartChar: six
Encoding: 54 54 22
Width: 600
GlyphClass: 2
Flags: W
HStem: 0 110<213 387> 300 110<210 390> 540 110<260 425>
VStem: 80 130<110 300 410 500> 390 130<110 300>
LayerCount: 2
Fore
SplineSet
390 110 m 1
 390 300 l 1
 210 300 l 1
 210 110 l 1
 390 110 l 1
520 314 m 1
 520 102 l 1
 387 0 l 1
 213 0 l 1
 80 102 l 1
 80 538 l 1
 223 650 l 1
 425 650 l 1
 425 540 l 1
 260 540 l 1
 210 500 l 1
 210 410 l 1
 390 410 l 1
 520 314 l 1
EndSplineSet
Validated: 1
EndChar

StartChar: seven
Encoding: 55 55 23
Width: 600
GlyphClass: 2
Flags: W
HStem: 0 21G<135 294.091> 540 110<65 385>
LayerCount: 2
Fore
SplineSet
285 0 m 1
 135 0 l 1
 385 528 l 1
 385 540 l 1
 65 540 l 1
 65 650 l 1
 435 650 l 1
 535 550 l 1
 285 0 l 1
EndSplineSet
Validated: 1
EndChar

StartChar: eight
Encoding: 56 56 24
Width: 600
GlyphClass: 2
Flags: W
HStem: 0 110<223 377> 284 101<233 367> 540 110<223 377>
VStem: 80 130<110 260 400 540> 390 130<110 260 400 540>
LayerCount: 2
Fore
SplineSet
390 270 m 1
 367 284 l 1
 233 284 l 5
 210 270 l 5
 210 110 l 5
 390 110 l 1
 390 270 l 1
428 341 m 1
 427 329 l 1
 520 260 l 1
 520 100 l 1
 377 0 l 1
 223 0 l 5
 80 100 l 5
 80 260 l 5
 172 329 l 5
 172 341 l 5
 80 400 l 5
 80 550 l 5
 223 650 l 5
 377 650 l 1
 520 550 l 1
 520 400 l 1
 428 341 l 1
390 400 m 1
 390 540 l 1
 210 540 l 5
 210 400 l 5
 233 385 l 5
 367 385 l 1
 390 400 l 1
EndSplineSet
Validated: 1
EndChar

StartChar: nine
Encoding: 57 57 25
Width: 600
GlyphClass: 2
Flags: W
HStem: 0 110<120 367> 265 110<210 390> 540 110<210 390>
VStem: 80 130<375 540> 390 130<130 265 375 540>
LayerCount: 2
Fore
SplineSet
210 540 m 1
 210 375 l 1
 390 375 l 1
 390 540 l 1
 210 540 l 1
420 0 m 1
 120 0 l 1
 120 110 l 1
 367 110 l 1
 390 130 l 1
 390 265 l 1
 180 265 l 1
 80 365 l 1
 80 550 l 1
 190 650 l 5
 410 650 l 1
 520 550 l 1
 520 100 l 1
 420 0 l 1
EndSplineSet
Validated: 1
EndChar

StartChar: colon
Encoding: 58 58 26
Width: 600
GlyphClass: 2
Flags: W
HStem: 60 150<225 375> 290 150<225 375>
VStem: 225 150<60 210 290 440>
LayerCount: 2
Fore
SplineSet
225 440 m 1
 375 440 l 1
 375 290 l 1
 225 290 l 1
 225 440 l 1
225 210 m 5
 375 210 l 5
 375 60 l 5
 225 60 l 5
 225 210 l 5
EndSplineSet
Validated: 1
EndChar

StartChar: semicolon
Encoding: 59 59 27
Width: 600
GlyphClass: 2
Flags: W
HStem: 110 100<165 310> 330 150<255 405>
VStem: 255 150<330 480> 310 125<-70 110>
LayerCount: 2
Fore
SplineSet
165 110 m 5xd0
 165 210 l 5
 435 210 l 5
 435 -70 l 5
 310 -70 l 5
 310 110 l 5
 165 110 l 5xd0
255 480 m 5xe0
 405 480 l 5
 405 330 l 5
 255 330 l 5
 255 480 l 5xe0
EndSplineSet
Validated: 1
EndChar

StartChar: less
Encoding: 60 60 28
Width: 600
GlyphClass: 2
Flags: W
LayerCount: 2
Fore
SplineSet
520 389 m 1
 310 250 l 1
 520 111 l 1
 448 20 l 5
 180 225 l 1
 180 275 l 1
 448 480 l 5
 520 389 l 1
EndSplineSet
Validated: 1
EndChar

StartChar: equal
Encoding: 61 61 29
Width: 600
GlyphClass: 2
Flags: W
HStem: 100 100<60 540> 300 100<60 540>
LayerCount: 2
Fore
SplineSet
60 200 m 1
 540 200 l 1
 540 100 l 1
 60 100 l 1
 60 200 l 1
60 400 m 5
 540 400 l 5
 540 300 l 5
 60 300 l 5
 60 400 l 5
EndSplineSet
Validated: 1
EndChar

StartChar: greater
Encoding: 62 62 30
Width: 600
GlyphClass: 2
Flags: W
LayerCount: 2
Fore
SplineSet
80 389 m 1
 152 480 l 5
 420 275 l 1
 420 225 l 1
 152 20 l 5
 80 111 l 1
 290 250 l 1
 80 389 l 1
EndSplineSet
Validated: 1
EndChar

StartChar: question
Encoding: 63 63 31
Width: 600
GlyphClass: 2
Flags: W
HStem: 0 170<145 318> 640 110<80 250>
VStem: 144 146<225 300> 145 173<0 170> 320 140<475 570>
LayerCount: 2
Fore
SplineSet
290 225 m 1xe8
 144 225 l 1
 144 325 l 1
 320 475 l 1
 320 570 l 1
 250 640 l 1
 80 640 l 1
 80 750 l 1
 310 750 l 1
 460 600 l 1
 460 450 l 1
 290 300 l 1
 290 225 l 1xe8
145 170 m 1xd8
 318 170 l 1
 318 0 l 1
 145 0 l 1
 145 170 l 1xd8
EndSplineSet
Validated: 1
EndChar

StartChar: at
Encoding: 64 64 32
Width: 600
GlyphClass: 2
Flags: W
HStem: 0 80<210 470> 180 75<370 420> 570 80<210 400>
VStem: 80 110<100 550> 250 120<255 435> 420 100<255 550>
LayerCount: 2
Fore
SplineSet
470 0 m 1
 160 0 l 1
 80 80 l 1
 80 570 l 1
 160 650 l 1
 440 650 l 1
 520 570 l 1
 520 230 l 1
 470 180 l 1
 300 180 l 1
 250 230 l 1
 250 435 l 1
 340 435 l 1
 370 435 l 1
 370 255 l 1
 420 255 l 1
 420 550 l 1
 400 570 l 1
 210 570 l 5
 190 550 l 5
 190 100 l 5
 210 80 l 5
 470 80 l 1
 470 0 l 1
EndSplineSet
Validated: 1
EndChar

StartChar: A
Encoding: 65 65 33
Width: 600
GlyphClass: 2
Flags: W
HStem: 0 21G<0 153.81 446.19 600> 210 100<205 395> 545 120<245 355>
LayerCount: 2
Fore
SplineSet
600 0 m 1
 450 0 l 25
 410 210 l 25
 190 210 l 25
 150 0 l 25
 0 0 l 1
 125 595 l 1
 215 665 l 1
 385 665 l 1
 475 595 l 1
 600 0 l 1
395 310 m 25
 355 545 l 1
 245 545 l 1
 205 310 l 1
 395 310 l 25
EndSplineSet
Validated: 1
EndChar

StartChar: B
Encoding: 66 66 34
Width: 600
GlyphClass: 2
Flags: WO
HStem: 0 100<220 350> 300 100<220 390> 550 100<220 365>
VStem: 70 150<100 300 400 550> 390 150<140 287 400 525>
LayerCount: 2
Fore
SplineSet
365 550 m 1
 220 550 l 1
 220 400 l 1
 390 400 l 1
 390 525 l 1
 365 550 l 1
460 330 m 1
 540 287 l 1
 540 115 l 1
 425 0 l 1
 70 0 l 1
 70 650 l 1
 415 650 l 1
 540 525 l 1
 540 400 l 1
 460 360 l 1
 460 330 l 1
220 300 m 1
 220 100 l 1
 350 100 l 1
 390 140 l 1
 390 300 l 1
 220 300 l 1
EndSplineSet
Validated: 1
EndChar

StartChar: C
Encoding: 67 67 35
Width: 600
GlyphClass: 2
Flags: W
HStem: 0 100<275 400> 550 100<275 390>
VStem: 70 160<140 510>
LayerCount: 2
Fore
SplineSet
550 85 m 1
 445 0 l 1
 260 0 l 1
 144 41 l 1
 70 140 l 1
 70 510 l 1
 148 612 l 1
 260 650 l 1
 435 650 l 1
 540 570 l 1
 540 490 l 1
 390 490 l 1
 390 550 l 1
 275 550 l 1
 230 515 l 1
 230 135 l 1
 275 100 l 1
 400 100 l 1
 400 160 l 1
 550 160 l 1
 550 85 l 1
EndSplineSet
Validated: 1
EndChar

StartChar: D
Encoding: 68 68 36
Width: 600
GlyphClass: 2
Flags: W
HStem: 0 100<230 330> 550 100<230 330>
VStem: 80 150<100 550> 400 150<170 480>
LayerCount: 2
Fore
SplineSet
80 650 m 1
 390 650 l 1
 550 490 l 1
 550 160 l 1
 390 0 l 1
 80 0 l 1
 80 650 l 1
230 100 m 1
 330 100 l 5
 400 170 l 1
 400 480 l 1
 330 550 l 1
 230 550 l 1
 230 100 l 1
EndSplineSet
Validated: 1
EndChar

StartChar: E
Encoding: 69 69 37
Width: 600
GlyphClass: 2
Flags: W
HStem: 0 110<230 530> 290 110<230 515> 540 110<230 525>
VStem: 80 150<110 290 400 540>
LayerCount: 2
Fore
SplineSet
130 650 m 29
 525 650 l 25
 525 540 l 25
 230 540 l 29
 230 400 l 29
 515 400 l 25
 515 290 l 25
 230 290 l 29
 230 110 l 29
 530 110 l 25
 530 0 l 25
 130 0 l 29
 80 50 l 29
 80 600 l 29
 130 650 l 29
EndSplineSet
Validated: 1
EndChar

StartChar: F
Encoding: 70 70 38
Width: 600
GlyphClass: 2
Flags: W
HStem: 0 21G<80 230> 275 100<230 490> 543 107<230 540>
VStem: 80 150<0 275 375 543>
LayerCount: 2
Fore
SplineSet
540 650 m 1
 540 543 l 1
 230 543 l 1
 230 375 l 1
 490 375 l 1
 490 275 l 1
 230 275 l 1
 230 0 l 1
 80 0 l 1
 80 650 l 1
 540 650 l 1
EndSplineSet
Validated: 1
EndChar

StartChar: G
Encoding: 71 71 39
Width: 600
GlyphClass: 2
Flags: W
HStem: 0 100<290 430> 275 100<316 430> 540 110<280 512>
VStem: 60 150<180 470> 430 120<100 275>
LayerCount: 2
Fore
SplineSet
210 0 m 25
 60 150 l 25
 60 490 l 1
 220 650 l 1
 512 650 l 25
 512 540 l 25
 280 540 l 1
 210 470 l 1
 210 180 l 25
 290 100 l 25
 430 100 l 25
 430 275 l 29
 316 275 l 29
 316 375 l 29
 550 375 l 29
 550 60 l 25
 490 0 l 25
 210 0 l 25
EndSplineSet
Validated: 1
EndChar

StartChar: H
Encoding: 72 72 40
Width: 600
GlyphClass: 2
Flags: W
HStem: 0 21G<70 220 380 530> 310 100<220 380> 630 20G<70 220 380 530>
VStem: 70 150<0 310 410 650> 380 150<0 310 410 650>
LayerCount: 2
Fore
SplineSet
70 650 m 1
 220 650 l 1
 220 410 l 1
 380 410 l 1
 380 650 l 1
 530 650 l 1
 530 0 l 1
 380 0 l 1
 380 310 l 1
 220 310 l 1
 220 0 l 1
 70 0 l 1
 70 650 l 1
EndSplineSet
Validated: 1
EndChar

StartChar: I
Encoding: 73 73 41
Width: 600
GlyphClass: 2
Flags: W
HStem: 0 100<80 225 375 520> 550 100<80 225 375 520>
VStem: 225 150<100 550>
LayerCount: 2
Fore
SplineSet
80 650 m 1
 520 650 l 1
 520 550 l 1
 375 550 l 1
 375 100 l 5
 520 100 l 5
 520 0 l 1
 80 0 l 1
 80 100 l 5
 225 100 l 5
 225 550 l 1
 80 550 l 1
 80 650 l 1
EndSplineSet
Validated: 1
EndChar

StartChar: J
Encoding: 74 74 42
Width: 600
GlyphClass: 2
Flags: W
HStem: 0 100<88 297> 550 100<162 362>
VStem: 362 150<175 550>
LayerCount: 2
Fore
SplineSet
362 550 m 1
 162 550 l 1
 162 650 l 1
 512 650 l 1
 512 160 l 1
 352 0 l 1
 88 0 l 1
 88 100 l 1
 297 100 l 1
 362 175 l 5
 362 550 l 1
EndSplineSet
Validated: 1
EndChar

StartChar: K
Encoding: 75 75 43
Width: 600
GlyphClass: 2
Flags: W
HStem: 0 21G<80 230 416.576 600> 630 20G<80 230 387.596 575>
VStem: 80 150<0 295 415 650>
LayerCount: 2
Fore
SplineSet
80 650 m 1
 230 650 l 5
 230 415 l 5
 265 415 l 1
 399 650 l 1
 575 650 l 1
 363 385 l 1
 600 0 l 1
 426 0 l 1
 287 295 l 1
 230 295 l 5
 230 0 l 5
 80 0 l 1
 80 650 l 1
EndSplineSet
Validated: 1
EndChar

StartChar: L
Encoding: 76 76 44
Width: 600
GlyphClass: 2
Flags: W
HStem: 0 110<245 550> 630 20G<95 245>
VStem: 95 150<110 650>
LayerCount: 2
Fore
SplineSet
95 650 m 1
 245 650 l 1
 245 110 l 5
 550 110 l 5
 550 0 l 1
 155 0 l 1
 95 60 l 1
 95 650 l 1
EndSplineSet
Validated: 1
EndChar

StartChar: M
Encoding: 77 77 45
Width: 600
GlyphClass: 2
Flags: W
HStem: 0 21G<35 185 415 565> 630 20G<35 174.31 416.379 565>
VStem: 35 150<0 440> 415 150<0 440>
LayerCount: 2
Fore
SplineSet
35 650 m 25
 165 650 l 25
 300 360 l 25
 425 650 l 25
 565 650 l 25
 565 0 l 25
 415 0 l 25
 415 440 l 29
 345 280 l 25
 255 280 l 25
 185 440 l 29
 185 0 l 25
 35 0 l 25
 35 650 l 25
EndSplineSet
Validated: 1
EndChar

StartChar: N
Encoding: 78 78 46
Width: 600
GlyphClass: 2
Flags: W
HStem: 0 21G<60 210 390 540> 630 20G<60 210 390 540>
VStem: 60 150<0 362 512 650> 390 150<0 125 275 650>
LayerCount: 2
Fore
SplineSet
210 650 m 1
 210 512 l 5
 390 275 l 5
 390 650 l 1
 460 650 l 1
 540 650 l 1
 540 0 l 1
 390 0 l 1
 390 125 l 5
 210 362 l 5
 210 0 l 1
 140 0 l 1
 60 0 l 1
 60 650 l 1
 210 650 l 1
EndSplineSet
Validated: 1
EndChar

StartChar: O
Encoding: 79 79 47
Width: 600
GlyphClass: 2
Flags: W
HStem: 0 100<255 345> 550 100<255 345>
VStem: 60 150<160 490> 390 150<160 490>
LayerCount: 2
Fore
SplineSet
255 550 m 1
 225 530 l 1
 210 510 l 1
 210 140 l 1
 225 120 l 1
 255 100 l 1
 345 100 l 1
 375 120 l 1
 390 140 l 1
 390 510 l 1
 375 530 l 1
 345 550 l 1
 255 550 l 1
375 650 m 1
 480 590 l 1
 540 490 l 1
 540 160 l 1
 480 55 l 1
 375 0 l 1
 225 0 l 1
 120 55 l 1
 60 160 l 1
 60 490 l 1
 120 590 l 1
 225 650 l 1
 375 650 l 1
EndSplineSet
Validated: 1
EndChar

StartChar: P
Encoding: 80 80 48
Width: 600
GlyphClass: 2
Flags: W
HStem: 0 21G<80 230> 250 100<230 370> 550 100<230 360>
VStem: 80 150<0 250 350 550> 390 150<370 520>
LayerCount: 2
Fore
SplineSet
540 360 m 5
 430 250 l 5
 230 250 l 5
 230 0 l 1
 80 0 l 1
 80 650 l 1
 440 650 l 1
 540 550 l 1
 540 360 l 5
390 370 m 5
 390 520 l 1
 360 550 l 1
 230 550 l 1
 230 350 l 5
 370 350 l 5
 390 370 l 5
EndSplineSet
Validated: 1
EndChar

StartChar: Q
Encoding: 81 81 49
Width: 600
GlyphClass: 2
Flags: W
HStem: 0 21G<159.182 204.286> 550 100<250 350>
VStem: 70 150<140 520> 380 150<162 510>
LayerCount: 2
Fore
SplineSet
290 70 m 1
 380 160 l 5
 380 510 l 1
 350 550 l 1
 250 550 l 1
 220 520 l 1
 220 140 l 1
 290 140 l 1
 190 0 l 1
 179 0 l 1
 70 110 l 1
 70 540 l 1
 180 650 l 1
 420 650 l 1
 530 540 l 1
 530 162 l 1
 450 82 l 1
 570 -60 l 1
 394 -60 l 1
 290 70 l 1
EndSplineSet
Validated: 1
EndChar

StartChar: R
Encoding: 82 82 50
Width: 600
GlyphClass: 2
Flags: W
HStem: 0 110<504 550> 250 100<220 310> 550 100<220 360>
VStem: 70 150<0 250 350 550> 390 140<395 520>
LayerCount: 2
Fore
SplineSet
220 250 m 29
 220 0 l 25
 70 0 l 25
 70 650 l 25
 430 650 l 25
 530 550 l 25
 530 380 l 29
 430 290 l 29
 430 270 l 29
 504 110 l 25
 550 110 l 25
 550 0 l 25
 425 0 l 25
 310 250 l 29
 220 250 l 29
345 350 m 29
 390 395 l 29
 390 520 l 25
 360 550 l 25
 220 550 l 25
 220 350 l 29
 345 350 l 29
EndSplineSet
Validated: 1
EndChar

StartChar: S
Encoding: 83 83 51
Width: 600
GlyphClass: 2
Flags: W
HStem: 0 120<80 370> 295 110<230 370> 530 120<230 520>
VStem: 80 150<405 530> 370 150<120 295>
LayerCount: 2
Fore
SplineSet
520 650 m 1
 520 530 l 1
 230 530 l 1
 230 405 l 1
 410 405 l 1
 520 295 l 1
 520 100 l 1
 420 0 l 1
 80 0 l 1
 80 120 l 1
 370 120 l 1
 370 295 l 1
 190 295 l 1
 80 405 l 1
 80 550 l 1
 180 650 l 1
 520 650 l 1
EndSplineSet
Validated: 1
EndChar

StartChar: T
Encoding: 84 84 52
Width: 600
GlyphClass: 2
Flags: W
HStem: 0 21G<225 375> 540 110<35 225 375 565>
VStem: 225 150<0 540>
LayerCount: 2
Fore
SplineSet
565 650 m 1
 565 540 l 5
 375 540 l 5
 375 0 l 1
 225 0 l 1
 225 540 l 5
 35 540 l 5
 35 650 l 1
 565 650 l 1
EndSplineSet
Validated: 1
EndChar

StartChar: U
Encoding: 85 85 53
Width: 600
GlyphClass: 2
Flags: W
HStem: 0 100<230 370> 630 20G<60 210 390 540>
VStem: 60 150<115 650> 390 150<115 650>
LayerCount: 2
Fore
SplineSet
540 100 m 1
 415 0 l 1
 185 0 l 1
 60 100 l 1
 60 650 l 1
 210 650 l 1
 210 115 l 1
 230 100 l 1
 370 100 l 1
 390 115 l 1
 390 650 l 1
 540 650 l 1
 540 100 l 1
EndSplineSet
Validated: 1
EndChar

StartChar: V
Encoding: 86 86 54
Width: 600
GlyphClass: 2
Flags: W
HStem: 0 100<280 320> 630 20G<30 185 415 570>
LayerCount: 2
Fore
SplineSet
570 620 m 1
 420 0 l 1
 180 0 l 1
 30 620 l 1
 30 650 l 1
 185 650 l 1
 185 620 l 1
 280 100 l 1
 320 100 l 1
 415 620 l 1
 415 650 l 1
 570 650 l 1
 570 620 l 1
EndSplineSet
Validated: 1
EndChar

StartChar: W
Encoding: 87 87 55
Width: 600
GlyphClass: 2
Flags: W
HStem: 0 100<180 250 330 400> 630 20G<50 180 400 550>
VStem: 50 130<100 650> 250 80<100 440> 400 150<100 650>
LayerCount: 2
Fore
SplineSet
50 650 m 1
 180 650 l 1
 180 100 l 1
 250 100 l 5
 250 440 l 5
 330 440 l 5
 330 100 l 5
 400 100 l 1
 400 650 l 1
 550 650 l 1
 550 100 l 1
 450 0 l 1
 150 0 l 1
 50 100 l 1
 50 650 l 1
EndSplineSet
Validated: 1
EndChar

StartChar: X
Encoding: 88 88 56
Width: 600
GlyphClass: 2
Flags: W
HStem: 0 21G<80 230 370 520> 630 20G<80 230 370 520>
VStem: 80 150<0 205 535 650> 370 150<0 205 535 650>
LayerCount: 2
Fore
SplineSet
520 650 m 1
 520 515 l 1
 385 365 l 1
 520 215 l 1
 520 0 l 1
 370 0 l 5
 370 205 l 5
 300 305 l 1
 230 205 l 1
 230 0 l 1
 80 0 l 1
 80 215 l 1
 215 365 l 1
 80 515 l 1
 80 650 l 1
 230 650 l 1
 230 535 l 1
 300 415 l 1
 370 535 l 1
 370 650 l 1
 520 650 l 1
EndSplineSet
Validated: 1
EndChar

StartChar: Y
Encoding: 89 89 57
Width: 600
GlyphClass: 2
Flags: W
HStem: 0 21G<225 375> 630 20G<60 210 390 540>
VStem: 60 150<550 650> 225 150<0 255> 390 150<550 650>
CounterMasks: 1 38
LayerCount: 2
Fore
SplineSet
60 650 m 25
 210 650 l 25
 210 550 l 25
 300 339 l 25
 390 550 l 25
 390 650 l 25
 540 650 l 25
 540 550 l 25
 375 255 l 25
 375 0 l 25
 225 0 l 25
 225 255 l 25
 60 550 l 25
 60 650 l 25
EndSplineSet
Validated: 1
EndChar

StartChar: Z
Encoding: 90 90 58
Width: 600
GlyphClass: 2
Flags: W
HStem: 0 100<227 520> 550 100<80 373>
LayerCount: 2
Fore
SplineSet
80 650 m 5
 445 650 l 5
 445 600 l 5
 520 600 l 5
 520 512 l 5
 227 100 l 5
 520 100 l 5
 520 0 l 5
 155 0 l 5
 155 50 l 5
 80 50 l 5
 80 138 l 5
 373 550 l 5
 80 550 l 5
 80 650 l 5
EndSplineSet
Validated: 1
EndChar

StartChar: bracketleft
Encoding: 91 91 59
Width: 600
GlyphClass: 2
Flags: W
HStem: -250 110<210 400> 640 110<210 400>
VStem: 80 320<-250 -140 640 750> 80 130<-140 640>
LayerCount: 2
Fore
SplineSet
80 750 m 1xe0
 400 750 l 1
 400 640 l 1xe0
 210 640 l 1
 210 -140 l 1xd0
 400 -140 l 1
 400 -250 l 1
 80 -250 l 1
 80 750 l 1xe0
EndSplineSet
Validated: 1
EndChar

StartChar: backslash
Encoding: 92 92 60
Width: 600
GlyphClass: 2
Flags: W
HStem: -125 125<505 585> 625 125<110 190>
LayerCount: 2
Fore
SplineSet
270 750 m 5
 505 0 l 1
 585 0 l 1
 585 -125 l 1
 425 -125 l 1
 190 625 l 1
 110 625 l 1
 110 750 l 1
 270 750 l 5
EndSplineSet
Validated: 1
EndChar

StartChar: bracketright
Encoding: 93 93 61
Width: 600
GlyphClass: 2
Flags: W
HStem: -250 110<200 390> 640 110<200 390>
VStem: 200 320<-250 -140 640 750> 390 130<-140 640>
LayerCount: 2
Fore
SplineSet
520 -250 m 1xe0
 200 -250 l 1
 200 -140 l 1xe0
 390 -140 l 1
 390 640 l 1xd0
 200 640 l 1
 200 750 l 1
 520 750 l 1
 520 -250 l 1xe0
EndSplineSet
Validated: 1
EndChar

StartChar: asciicircum
Encoding: 94 94 62
Width: 600
GlyphClass: 2
Flags: W
HStem: 404 331
LayerCount: 2
Fore
SplineSet
345 735 m 1
 566 500 l 1
 479 404 l 5
 301 596 l 5
 123 404 l 5
 34 500 l 1
 258 735 l 1
 345 735 l 1
EndSplineSet
Validated: 1
EndChar

StartChar: underscore
Encoding: 95 95 63
Width: 600
GlyphClass: 2
Flags: W
HStem: 5 50<80 530>
LayerCount: 2
Fore
SplineSet
530 55 m 1
 530 5 l 1
 80 5 l 1
 80 55 l 1
 530 55 l 1
EndSplineSet
Validated: 1
EndChar

StartChar: grave
Encoding: 96 96 64
Width: 600
GlyphClass: 2
Flags: W
HStem: 420 305<360 480>
LayerCount: 2
Fore
SplineSet
480 725 m 1
 480 420 l 1
 360 420 l 1
 100 725 l 5
 480 725 l 1
EndSplineSet
Validated: 1
EndChar

StartChar: a
Encoding: 97 97 65
Width: 600
GlyphClass: 2
Flags: W
HStem: 0 80<220 370> 210 80<220 370> 395 85<100 350>
VStem: 70 150<80 210> 370 150<80 210 290 375>
LayerCount: 2
Fore
SplineSet
370 210 m 1
 245 210 l 1
 220 210 l 1
 220 80 l 1
 235 80 l 1
 370 80 l 1
 370 210 l 1
520 0 m 25
 150 0 l 25
 70 80 l 25
 70 210 l 25
 150 290 l 25
 370 290 l 25
 370 375 l 25
 350 395 l 25
 215 395 l 25
 100 395 l 25
 100 480 l 17
 215 480 l 1
 395 480 l 1
 473 439 l 1
 520 380 l 1
 520 0 l 25
EndSplineSet
Validated: 1
EndChar

StartChar: b
Encoding: 98 98 66
Width: 600
GlyphClass: 2
Flags: W
HStem: 0 80<230 335> 400 80<280 345> 640 20G<80 230>
VStem: 80 150<80 360 440 660> 390 150<135 360>
LayerCount: 2
Fore
SplineSet
540 385 m 25
 540 125 l 25
 415 0 l 17
 140 0 l 1
 80 80 l 9
 80 660 l 25
 230 660 l 25
 230 440 l 25
 280 480 l 25
 415 480 l 25
 540 385 l 25
345 400 m 25
 280 400 l 25
 230 360 l 25
 230 80 l 25
 335 80 l 25
 390 135 l 25
 390 360 l 25
 345 400 l 25
EndSplineSet
Validated: 1
EndChar

StartChar: c
Encoding: 99 99 67
Width: 600
GlyphClass: 2
Flags: W
HStem: 0 88<265 520> 392 88<265 520>
VStem: 80 155<108 372>
LayerCount: 2
Fore
SplineSet
200 0 m 1
 80 80 l 1
 80 400 l 1
 200 480 l 1
 520 480 l 1
 520 392 l 1
 265 392 l 5
 235 372 l 5
 235 108 l 5
 265 88 l 5
 520 88 l 1
 520 0 l 1
 200 0 l 1
EndSplineSet
Validated: 1
EndChar

StartChar: d
Encoding: 100 100 68
Width: 600
GlyphClass: 2
Flags: W
HStem: 0 80<250 370> 400 80<260 370> 640 20G<370 520>
VStem: 70 150<115 360> 370 150<80 400 480 660>
LayerCount: 2
Fore
SplineSet
70 360 m 25
 190 480 l 25
 370 480 l 25
 370 660 l 25
 520 660 l 25
 520 0 l 25
 185 0 l 25
 70 115 l 25
 70 360 l 25
220 360 m 29
 220 110 l 21
 250 80 l 5
 370 80 l 9
 370 400 l 25
 260 400 l 29
 220 360 l 29
EndSplineSet
Validated: 1
EndChar

StartChar: e
Encoding: 101 101 69
Width: 600
GlyphClass: 2
Flags: W
HStem: 0 95<260 470> 210 80<220 410> 390 90<240 370>
VStem: 70 150<135 210 290 370> 410 120<290 350>
LayerCount: 2
Fore
SplineSet
190 0 m 1
 70 120 l 1
 70 380 l 1
 170 480 l 1
 430 480 l 1
 530 380 l 1
 530 210 l 1
 220 210 l 1
 220 135 l 1
 260 95 l 1
 470 95 l 9
 470 0 l 17
 376 0 l 1
 190 0 l 1
410 290 m 9
 410 350 l 17
 370 390 l 1
 240 390 l 1
 220 370 l 1
 220 290 l 1
 410 290 l 9
EndSplineSet
Validated: 1
EndChar

StartChar: f
Encoding: 102 102 70
Width: 600
GlyphClass: 2
Flags: W
HStem: 0 21G<150 300> 365 85<300 530> 580 100<380 550>
VStem: 150 150<0 365 450 500>
LayerCount: 2
Fore
SplineSet
550 580 m 1
 440 580 l 1
 380 580 l 1
 300 500 l 1
 300 450 l 1
 530 450 l 1
 530 365 l 1
 300 365 l 1
 300 0 l 1
 150 0 l 1
 150 360 l 1
 150 505 l 1
 325 680 l 1
 430 680 l 1
 550 680 l 1
 550 580 l 1
EndSplineSet
Validated: 1
EndChar

StartChar: g
Encoding: 103 103 71
Width: 600
GlyphClass: 2
Flags: W
HStem: -150 90<80 365> 65 80<255 338> 400 80<255 370>
VStem: 80 150<185 375> 370 150<155 400> 390 130<-35 85>
LayerCount: 2
Fore
SplineSet
370 400 m 25xf8
 255 400 l 25
 230 375 l 25
 230 170 l 25
 255 145 l 25
 310 145 l 25
 370 155 l 25
 370 400 l 25xf8
520 -45 m 25xf4
 415 -150 l 25
 80 -150 l 25
 80 -60 l 25
 365 -60 l 25
 390 -35 l 25
 390 85 l 25
 310 65 l 25
 200 65 l 1
 124 106 l 1
 80 185 l 1
 80 375 l 1
 130 445 l 1
 210 480 l 1
 520 480 l 25
 520 -45 l 25xf4
EndSplineSet
Validated: 1
EndChar

StartChar: h
Encoding: 104 104 72
Width: 600
GlyphClass: 2
Flags: W
HStem: 0 21G<80 230 390 540> 400 80<290 370>
VStem: 80 150<0 355 435 675> 390 150<0 380>
LayerCount: 2
Fore
SplineSet
540 400 m 1
 540 0 l 1
 390 0 l 1
 390 380 l 1
 370 400 l 1
 290 400 l 1
 230 355 l 1
 230 0 l 1
 80 0 l 1
 80 675 l 1
 230 675 l 1
 230 435 l 1
 290 480 l 1
 460 480 l 1
 540 400 l 1
EndSplineSet
Validated: 1
EndChar

StartChar: i
Encoding: 105 105 73
Width: 600
GlyphClass: 2
Flags: W
HStem: 0 21G<290 440> 395 85<80 290> 580 145<275 440>
VStem: 275 165<580 725> 290 150<0 395>
LayerCount: 2
Fore
SplineSet
275 725 m 1xf0
 440 725 l 1
 440 580 l 1
 275 580 l 1
 275 725 l 1xf0
440 0 m 1xe8
 290 0 l 1
 290 395 l 1
 80 395 l 1
 80 480 l 1
 440 480 l 1
 440 0 l 1xe8
EndSplineSet
Validated: 1
EndChar

StartChar: j
Encoding: 106 106 74
Width: 600
GlyphClass: 2
Flags: W
HStem: -115 100<100 280> 405 75<120 330>
VStem: 330 150<35 405>
LayerCount: 2
Fore
SplineSet
330 35 m 25
 330 405 l 25
 120 405 l 25
 120 480 l 25
 480 480 l 25
 480 10 l 25
 355 -115 l 25
 100 -115 l 25
 100 -15 l 25
 280 -15 l 25
 330 35 l 25
EndSplineSet
Validated: 1
EndChar

StartChar: k
Encoding: 107 107 75
Width: 600
GlyphClass: 2
Flags: W
HStem: 0 21G<80 230 443.81 570>
VStem: 80 150<0 150 280 680>
LayerCount: 2
Fore
SplineSet
80 680 m 1
 230 680 l 1
 230 280 l 1
 430 480 l 1
 545 480 l 1
 545 415 l 1
 395 270 l 1
 570 65 l 1
 570 0 l 1
 460 0 l 1
 290 210 l 1
 230 150 l 1
 230 0 l 1
 80 0 l 1
 80 680 l 1
EndSplineSet
Validated: 1
EndChar

StartChar: l
Encoding: 108 108 76
Width: 600
GlyphClass: 2
Flags: W
HStem: 0 21G<290 440> 600 80<80 290>
VStem: 290 150<0 600>
LayerCount: 2
Fore
SplineSet
290 0 m 1
 290 600 l 1
 80 600 l 5
 80 680 l 5
 440 680 l 1
 440 0 l 1
 290 0 l 1
EndSplineSet
Validated: 1
EndChar

StartChar: m
Encoding: 109 109 77
Width: 600
GlyphClass: 2
Flags: W
HStem: 0 21G<50 200 260 340 400 550> 400 80<200 260 340 400>
VStem: 50 150<0 400> 260 80<0 400> 400 150<0 400>
CounterMasks: 1 38
LayerCount: 2
Fore
SplineSet
260 0 m 1
 260 400 l 1
 200 400 l 1
 200 0 l 1
 50 0 l 1
 50 480 l 1
 470 480 l 1
 550 400 l 1
 550 0 l 1
 400 0 l 1
 400 400 l 1
 340 400 l 1
 340 0 l 1
 260 0 l 1
EndSplineSet
Validated: 1
EndChar

StartChar: n
Encoding: 110 110 78
Width: 600
GlyphClass: 2
Flags: W
HStem: 0 21G<80 230 380 530> 400 80<230 355>
VStem: 80 150<0 400> 380 150<0 375>
LayerCount: 2
Fore
SplineSet
530 400 m 4
 530 0 l 4
 380 0 l 4
 380 375 l 4
 355 400 l 4
 230 400 l 0
 230 0 l 0
 80 0 l 0
 80 480 l 0
 450 480 l 4
 530 400 l 4
EndSplineSet
Validated: 1
EndChar

StartChar: o
Encoding: 111 111 79
Width: 600
GlyphClass: 2
Flags: W
HStem: 0 80<250 350> 400 80<250 350>
VStem: 70 150<110 370> 380 150<110 370>
LayerCount: 2
Fore
SplineSet
250 400 m 17
 220 380 l 1
 220 100 l 1
 250 80 l 9
 350 80 l 17
 380 100 l 1
 380 380 l 1
 350 400 l 9
 250 400 l 17
400 480 m 1
 482 431 l 1
 530 370 l 1
 530 110 l 1
 484 46 l 1
 400 0 l 1
 200 0 l 1
 114 46 l 1
 70 110 l 1
 70 370 l 1
 114 431 l 1
 200 480 l 1
 400 480 l 1
EndSplineSet
Validated: 1
EndChar

StartChar: p
Encoding: 112 112 80
Width: 600
GlyphClass: 2
Flags: W
HStem: 25 80<230 345> 400 80<230 350>
VStem: 80 150<-150 25 105 400> 380 150<140 370>
LayerCount: 2
Fore
SplineSet
530 140 m 1
 415 25 l 1
 230 25 l 1
 230 -150 l 1
 80 -150 l 1
 80 480 l 1
 425 480 l 1
 530 375 l 1
 530 140 l 1
380 140 m 1
 380 370 l 1
 350 400 l 1
 230 400 l 1
 230 105 l 1
 345 105 l 1
 380 140 l 1
EndSplineSet
Validated: 1
EndChar

StartChar: q
Encoding: 113 113 81
Width: 600
GlyphClass: 2
Flags: W
HStem: 25 80<270 370> 400 80<260 370>
VStem: 80 150<145 370> 370 150<-150 25 105 400>
LayerCount: 2
Fore
SplineSet
80 140 m 1
 80 375 l 1
 185 480 l 1
 520 480 l 1
 520 -150 l 1
 370 -150 l 5
 370 25 l 5
 195 25 l 1
 80 140 l 1
230 145 m 1
 270 105 l 1
 370 105 l 5
 370 400 l 5
 260 400 l 1
 230 370 l 1
 230 145 l 1
EndSplineSet
Validated: 1
EndChar

StartChar: r
Encoding: 114 114 82
Width: 600
GlyphClass: 2
Flags: W
HStem: 0 21G<80 230> 370 110<230 520>
VStem: 80 150<0 370>
LayerCount: 2
Fore
SplineSet
230 370 m 25
 230 0 l 25
 80 0 l 17
 80 380 l 1
 180 380 l 1
 180 480 l 1
 520 480 l 1
 520 370 l 1
 230 370 l 25
EndSplineSet
Validated: 1
EndChar

StartChar: s
Encoding: 115 115 83
Width: 600
GlyphClass: 2
Flags: W
HStem: 0 90<80 375> 205 100<225 375> 390 90<225 520>
VStem: 80 145<305 390> 375 145<90 205>
LayerCount: 2
Fore
SplineSet
520 480 m 1
 520 390 l 1
 225 390 l 1
 225 305 l 1
 420 305 l 1
 520 205 l 1
 520 75 l 1
 445 0 l 1
 80 0 l 1
 80 90 l 1
 375 90 l 1
 375 205 l 1
 180 205 l 1
 80 305 l 1
 80 405 l 1
 155 480 l 1
 520 480 l 1
EndSplineSet
Validated: 1
EndChar

StartChar: t
Encoding: 116 116 84
Width: 600
GlyphClass: 2
Flags: W
HStem: 0 85<345 500> 375 85<60 145 335 520>
VStem: 165 150<115 375> 185 150<515 675>
LayerCount: 2
Fore
SplineSet
345 85 m 1xe0
 500 85 l 5
 500 0 l 5
 260 0 l 1
 260 30 l 1
 200 30 l 1
 200 69 l 1
 165 70 l 1
 165 375 l 1xe0
 60 375 l 1
 60 460 l 1
 145 460 l 1
 185 515 l 1
 185 675 l 1
 335 675 l 1
 335 460 l 1xd0
 520 460 l 1
 520 375 l 1
 315 375 l 1
 315 115 l 1
 345 85 l 1xe0
EndSplineSet
Validated: 1
EndChar

StartChar: u
Encoding: 117 117 85
Width: 600
GlyphClass: 2
Flags: W
HStem: 0 80<250 410>
VStem: 70 150<110 480> 380 150<110 480>
LayerCount: 2
Fore
SplineSet
530 0 m 1
 170 0 l 1
 70 100 l 1
 70 480 l 1
 220 480 l 1
 220 110 l 1
 250 80 l 1
 410 80 l 1
 380 110 l 1
 380 480 l 1
 530 480 l 1
 530 0 l 1
EndSplineSet
Validated: 1
EndChar

StartChar: v
Encoding: 118 118 86
Width: 600
GlyphClass: 2
Flags: W
HStem: 0 21G<202.083 397.917>
LayerCount: 2
Fore
SplineSet
390 0 m 1
 210 0 l 1
 20 480 l 1
 190 480 l 1
 300 60 l 1
 410 480 l 1
 580 480 l 1
 390 0 l 1
EndSplineSet
Validated: 1
EndChar

StartChar: w
Encoding: 119 119 87
Width: 600
GlyphClass: 2
Flags: W
HStem: 0 80<200 260 340 400>
VStem: 50 150<80 480> 260 80<80 350> 400 150<80 480>
CounterMasks: 1 70
LayerCount: 2
Fore
SplineSet
50 480 m 1
 200 480 l 1
 200 80 l 1
 260 80 l 9
 260 350 l 25
 340 350 l 25
 340 80 l 17
 400 80 l 1
 400 480 l 1
 550 480 l 1
 550 80 l 1
 470 80 l 1
 470 0 l 1
 125 0 l 1
 125 80 l 1
 50 80 l 1
 50 480 l 1
EndSplineSet
Validated: 1
EndChar

StartChar: x
Encoding: 120 120 88
Width: 600
GlyphClass: 2
Flags: W
HStem: 0 21G<80 230 370 520>
VStem: 80 150<0 80> 90 150<400 480> 360 150<400 480> 370 150<0 80>
LayerCount: 2
Fore
SplineSet
510 480 m 1xb0
 510 400 l 1xb0
 370 250 l 1
 520 80 l 1
 520 0 l 1
 370 0 l 1
 370 80 l 1
 300 163 l 1
 230 80 l 1
 230 0 l 1
 80 0 l 1
 80 80 l 1
 230 250 l 1xc8
 90 400 l 5
 90 480 l 5
 240 480 l 5
 240 400 l 5
 300 323 l 1
 360 400 l 1
 360 480 l 1
 510 480 l 1xb0
EndSplineSet
Validated: 1
EndChar

StartChar: y
Encoding: 121 121 89
Width: 600
GlyphClass: 2
Flags: W
HStem: -150 100<140 185>
LayerCount: 2
Fore
SplineSet
150 480 m 25
 290 175 l 25
 410 480 l 25
 580 480 l 1
 365 0 l 1
 295 -150 l 1
 140 -150 l 25
 140 -50 l 25
 185 -50 l 25
 233 59 l 25
 10 480 l 25
 150 480 l 25
EndSplineSet
Validated: 1
EndChar

StartChar: z
Encoding: 122 122 90
Width: 600
GlyphClass: 2
Flags: W
HStem: 0 80<245 500> 400 80<100 345>
LayerCount: 2
Fore
SplineSet
100 480 m 1
 425 480 l 1
 500 405 l 1
 500 310 l 1
 245 122 l 1
 245 80 l 1
 500 80 l 1
 500 0 l 1
 175 0 l 1
 100 75 l 1
 100 170 l 1
 345 358 l 1
 345 400 l 1
 100 400 l 1
 100 480 l 1
EndSplineSet
Validated: 1
EndChar

StartChar: braceleft
Encoding: 123 123 91
Width: 600
GlyphClass: 2
Flags: W
HStem: -250 100<393 540> 192 120<20 75> 650 100<395 540>
VStem: 195 150<-100 76 427 600>
LayerCount: 2
Fore
SplineSet
540 -150 m 25
 540 -250 l 25
 310 -250 l 25
 195 -135 l 25
 195 76 l 1
 75 192 l 1
 20 192 l 1
 20 312 l 1
 75 312 l 1
 195 427 l 1
 195 635 l 25
 310 750 l 25
 540 750 l 25
 540 650 l 25
 395 650 l 25
 345 600 l 25
 345 412 l 25
 160 251 l 25
 345 89 l 25
 345 -100 l 25
 393 -150 l 25
 540 -150 l 25
EndSplineSet
Validated: 1
EndChar

StartChar: bar
Encoding: 124 124 92
Width: 600
GlyphClass: 2
Flags: W
VStem: 225 150<-200 250 300 750>
LayerCount: 2
Fore
SplineSet
375 250 m 1
 375 -200 l 1
 225 -200 l 1
 225 250 l 1
 375 250 l 1
375 750 m 1
 375 300 l 1
 225 300 l 1
 225 750 l 1
 375 750 l 1
EndSplineSet
Validated: 1
EndChar

StartChar: braceright
Encoding: 125 125 93
Width: 600
GlyphClass: 2
Flags: W
HStem: -250 100<60 207> 192 120<525 580> 650 100<60 205>
VStem: 255 150<-100 76 427 600>
LayerCount: 2
Fore
SplineSet
60 -150 m 25
 207 -150 l 29
 255 -100 l 29
 255 89 l 29
 440 251 l 25
 255 412 l 29
 255 600 l 29
 205 650 l 29
 60 650 l 25
 60 750 l 25
 290 750 l 25
 405 635 l 25
 405 427 l 1
 525 312 l 1
 580 312 l 1
 580 192 l 1
 525 192 l 1
 405 76 l 1
 405 -135 l 25
 290 -250 l 25
 60 -250 l 25
 60 -150 l 25
EndSplineSet
Validated: 1
EndChar

StartChar: asciitilde
Encoding: 126 126 94
Width: 600
GlyphClass: 2
Flags: W
LayerCount: 2
Fore
SplineSet
523 305 m 5
 600 185 l 5
 533 110 l 5
 433 68 l 5
 333 110 l 5
 221 273 l 5
 167 304 l 5
 113 273 l 5
 77 219 l 5
 0 339 l 5
 67 414 l 5
 167 456 l 5
 267 415 l 5
 373 251 l 5
 430 220 l 5
 487 251 l 5
 523 305 l 5
EndSplineSet
Validated: 1
EndChar
